{
  "asset": {
    "version": "2.0",
    "generator": "THREE.GLTFExporter"
  },
  "scenes": [
    {
      "name": "AuxScene",
      "nodes": [
        32
      ]
    }
  ],
  "scene": 0,
  "nodes": [
    {
      "rotation": [
        -5.163553690566833e-18,
        1.7193486135178707e-16,
        0.26118078689464597,
        0.9652899028566981
      ],
      "translation": [
        21.01727890055099,
        -3.0981109755689147,
        0
      ],
      "scale": [
        1.000000127336175,
        1.000000127336175,
        0.9999999999999999
      ],
      "name": "Bone_22"
    },
    {
      "rotation": [
        0.6602442091976122,
        -0.2531360877637641,
        0.5352463811746841,
        -0.46207259071577733
      ],
      "translation": [
        11.315371002970835,
        -38.6875097435568,
        24.55679702758789
      ],
      "scale": [
        1.0000001524948663,
        1.0000003346040578,
        0.9999997772699905
      ],
      "name": "Bone_23"
    },
    {
      "rotation": [
        -0.4620885431213165,
        0.535232914465457,
        -0.253155618133388,
        0.6602364614699239
      ],
      "translation": [
        11.348930710764279,
        -38.688121439467864,
        -24.558574676513672
      ],
      "scale": [
        1.0000001644961267,
        1.000000218792755,
        0.9999997715448989
      ],
      "name": "Bone_25"
    },
    {
      "rotation": [
        -2.3034891270202662e-17,
        4.9694574485505616e-17,
        0.3931223644268572,
        0.9194861644350268
      ],
      "translation": [
        51.33445543393944,
        -3.156599035492036e-7,
        0
      ],
      "scale": [
        0.9999998021090776,
        0.9999998021090776,
        0.9999999999999999
      ],
      "name": "Bone_14",
      "children": [
        0,
        1,
        2
      ]
    },
    {
      "rotation": [
        0,
        0,
        -0.2777786487311095,
        0.9606451073675017
      ],
      "translation": [
        65.117068553806,
        0.16052617947107706,
        0
      ],
      "scale": [
        1.0000001128131413,
        1.0000001128131413,
        1
      ],
      "name": "Bone_10",
      "children": [
        3
      ]
    },
    {
      "rotation": [
        1.312020475475539e-7,
        -1.1813782482742148e-7,
        -0.3465377983861145,
        0.9380360090581111
      ],
      "translation": [
        27.076859928585534,
        0.000008937430109767774,
        -0.000009162755219449537
      ],
      "scale": [
        1.000000063657109,
        1.0000000309762098,
        1.0000000380664669
      ],
      "name": "Bone_29"
    },
    {
      "rotation": [
        -0.1682200594298089,
        -0.07890336448325777,
        -0.06800024541054377,
        0.9802307062790372
      ],
      "translation": [
        80.24651567355235,
        0.9387644358387917,
        -0.6411841292987432
      ],
      "scale": [
        1.0000001716916243,
        0.999999575761414,
        0.9999996960924816
      ],
      "name": "Bone_27",
      "children": [
        5
      ]
    },
    {
      "rotation": [
        6.726581011745824e-8,
        -9.387384428133609e-8,
        -0.4168422236265522,
        0.908978855970812
      ],
      "translation": [
        57.697164650807906,
        -0.0000019903793457842767,
        -0.000010699196110408593
      ],
      "scale": [
        0.9999992623917328,
        0.9999998766611395,
        0.9999998933459486
      ],
      "name": "Bone_24",
      "children": [
        6
      ]
    },
    {
      "rotation": [
        0.21854076054355676,
        0.1265281313017843,
        0.5849412116427128,
        0.770762186935012
      ],
      "translation": [
        56.285363824986874,
        -1.6100906352037896,
        -2.8682077403290833
      ],
      "scale": [
        1.000001083692992,
        1.0000000291750921,
        1.0000004651686558
      ],
      "name": "Bone_19",
      "children": [
        7
      ]
    },
    {
      "rotation": [
        0.08091714205482507,
        -0.0635652938400485,
        0.5688664408642977,
        0.8159674250146604
      ],
      "translation": [
        32.945956827769976,
        -14.520461960097464,
        20.92710304260254
      ],
      "scale": [
        0.9999993527694488,
        0.9999992148859109,
        1.000000307401588
      ],
      "name": "Bone_11",
      "children": [
        8
      ]
    },
    {
      "rotation": [
        -7.530067195179268e-8,
        -2.77903335059176e-7,
        -0.346540246869738,
        0.9380351045133416
      ],
      "translation": [
        27.076849144056403,
        -1.8682780478229688e-7,
        -0.000009536742417992627
      ],
      "scale": [
        0.9999998902945423,
        0.9999998168153433,
        1.0000000855907745
      ],
      "name": "Bone_30"
    },
    {
      "rotation": [
        0.1682213591170192,
        0.0789033323358918,
        -0.06799859086013613,
        0.9802306048823332
      ],
      "translation": [
        80.24648193101328,
        0.9389211504541777,
        0.6412564730701291
      ],
      "scale": [
        1.0000003073889927,
        0.9999998843424146,
        0.999999999414053
      ],
      "name": "Bone_28",
      "children": [
        10
      ]
    },
    {
      "rotation": [
        5.653364432973982e-8,
        1.9542854447364718e-7,
        -0.41684192677777343,
        0.9089789921005565
      ],
      "translation": [
        57.69716428818829,
        0.000013252233188154605,
        -0.000019335867406766738
      ],
      "scale": [
        0.9999994411576225,
        1.0000003532334225,
        1.0000001442931117
      ],
      "name": "Bone_26",
      "children": [
        11
      ]
    },
    {
      "rotation": [
        -0.21854093002734978,
        -0.12652835706931617,
        0.5849413291491655,
        0.7707620673061252
      ],
      "translation": [
        56.2854674604938,
        -1.610055686590158,
        2.868252038146885
      ],
      "scale": [
        1.0000006993493924,
        1.000000106510938,
        1.0000003979493677
      ],
      "name": "Bone_21",
      "children": [
        12
      ]
    },
    {
      "rotation": [
        -0.08091694506825133,
        0.06356519253873054,
        0.5688664689967222,
        0.8159674331230043
      ],
      "translation": [
        32.94593121457187,
        -14.520406036400203,
        -20.92708396911621
      ],
      "scale": [
        0.9999994096109524,
        0.9999992340141888,
        1.0000001679072807
      ],
      "name": "Bone_12",
      "children": [
        13
      ]
    },
    {
      "rotation": [
        0,
        0,
        -0.08445624950817528,
        0.9964271884683863
      ],
      "translation": [
        65.9395431666508,
        -0.00006095645593973131,
        0
      ],
      "scale": [
        0.9999997926333702,
        0.9999997926333702,
        1
      ],
      "name": "Bone_4",
      "children": [
        4,
        9,
        14
      ]
    },
    {
      "rotation": [
        -6.37269334442097e-18,
        -1.111329631842533e-16,
        -0.12496266632573859,
        0.992161444536504
      ],
      "translation": [
        39.1108347076954,
        -0.000010541057150703637,
        0
      ],
      "scale": [
        1.0000006380096376,
        1.0000006380096373,
        1
      ],
      "name": "Bone_2",
      "children": [
        15
      ]
    },
    {
      "rotation": [
        -0.04048108434933524,
        -0.705947081451508,
        0.04048108434933524,
        0.705947081451508
      ],
      "translation": [
        0,
        -173.70448303222656,
        -69.35758209228516
      ],
      "scale": [
        0.9999998509743744,
        0.9999998509743744,
        1
      ],
      "name": "Bone_0",
      "children": [
        16
      ]
    },
    {
      "rotation": [
        5.827857883032005e-17,
        7.27468062371965e-17,
        -0.3686576562553958,
        0.9295652384229298
      ],
      "translation": [
        36.477519810689664,
        0.00002259412761418389,
        -0.000011444091796875
      ],
      "scale": [
        0.9999998563576374,
        0.9999998563576374,
        1
      ],
      "name": "Bone_18"
    },
    {
      "rotation": [
        0.16955283843352367,
        0.042396999423002374,
        -0.40114312965881577,
        0.8991877051282291
      ],
      "translation": [
        59.80748813770792,
        -1.2755811407189697,
        -1.3844582392228233
      ],
      "scale": [
        0.9999991554676763,
        1.0000001893485104,
        0.9999997574089187
      ],
      "name": "Bone_15",
      "children": [
        18
      ]
    },
    {
      "rotation": [
        -5.391885805785905e-7,
        2.4167540009308344e-7,
        0.4405456371000241,
        0.8977302165081352
      ],
      "translation": [
        65.84967754306007,
        0.000006301528358676478,
        -1.3221433903254365e-7
      ],
      "scale": [
        0.9999999344017033,
        0.999999011225171,
        0.9999999838229605
      ],
      "name": "Bone_7",
      "children": [
        19
      ]
    },
    {
      "rotation": [
        -0.17470464723398235,
        0.0048804272913637835,
        -0.6824100743925311,
        0.7097682255129817
      ],
      "translation": [
        49.95542614641574,
        2.9312005309992912,
        21.262666702270508
      ],
      "scale": [
        1.00000042623518,
        1.000000144770134,
        1.0000003329272689
      ],
      "name": "Bone_3",
      "children": [
        20
      ]
    },
    {
      "rotation": [
        -2.0925783109698252e-7,
        -2.0021031669985303e-7,
        -0.36865494363821344,
        0.9295663142191662
      ],
      "translation": [
        36.47751293900213,
        0.000027104219782358996,
        -0.000008105280585368746
      ],
      "scale": [
        1.0000003203091077,
        1.00000022221717,
        1.0000001185045768
      ],
      "name": "Bone_20"
    },
    {
      "rotation": [
        -0.16955127937504466,
        -0.042398436537891604,
        -0.4011426193776921,
        0.8991881484405593
      ],
      "translation": [
        59.80742273644583,
        -1.2756613827797594,
        1.3844859303132182
      ],
      "scale": [
        1.000000650121546,
        1.0000002405254154,
        1.0000005810677244
      ],
      "name": "Bone_16",
      "children": [
        22
      ]
    },
    {
      "rotation": [
        -1.3392157052635525e-7,
        -6.319910711151775e-8,
        0.4405452478882353,
        0.897730407507212
      ],
      "translation": [
        65.84971447839483,
        0.000016866933087555935,
        0.000001359890958951837
      ],
      "scale": [
        1.0000001218149215,
        0.9999995163568202,
        0.9999999912154183
      ],
      "name": "Bone_8",
      "children": [
        23
      ]
    },
    {
      "rotation": [
        0.17470444503519406,
        -0.004880788886130919,
        -0.6824101566837091,
        0.7097682079494444
      ],
      "translation": [
        49.9554211669254,
        2.9312149544259114,
        -21.262666702270508
      ],
      "scale": [
        1.000000024311382,
        1.0000000679161023,
        0.9999999939215231
      ],
      "name": "Bone_5",
      "children": [
        24
      ]
    },
    {
      "rotation": [
        2.650366459163587e-7,
        -5.191890530372277e-7,
        0.5188003237233121,
        0.8548954462998827
      ],
      "translation": [
        33.119478628493255,
        0.000011691509200772998,
        0.00003104125119079981
      ],
      "scale": [
        1.0000006803777017,
        0.9999999956315315,
        1.0000002706025668
      ],
      "name": "Bone_17"
    },
    {
      "rotation": [
        -5.271724001062529e-7,
        -1.001257524278384e-7,
        0.581751362706766,
        0.8133666774515512
      ],
      "translation": [
        36.59558725851835,
        -0.000005488960141519783,
        0.000031016896912205993
      ],
      "scale": [
        0.9999999755879168,
        1.0000001077746903,
        0.9999998326483723
      ],
      "name": "Bone_13",
      "children": [
        26
      ]
    },
    {
      "rotation": [
        -1.682072077852164e-7,
        8.561536016314867e-8,
        0.5424742477708314,
        0.8400724317018217
      ],
      "translation": [
        37.891941603727645,
        -0.0000023087023706125365,
        -0.0000046588056932250765
      ],
      "scale": [
        1.0000000689320097,
        0.9999999106436721,
        0.9999999672762582
      ],
      "name": "Bone_9",
      "children": [
        27
      ]
    },
    {
      "rotation": [
        0.1566378254050757,
        0.4198840367383863,
        0.7248731595805422,
        0.5231833437745419
      ],
      "translation": [
        56.20755364000858,
        40.02638509668944,
        0
      ],
      "scale": [
        1.0000001587068295,
        0.9999997699179333,
        0.9999998619029181
      ],
      "name": "Bone_6",
      "children": [
        28
      ]
    },
    {
      "rotation": [
        -0.6973617887873068,
        -0.11698946764289378,
        0.6973617887873068,
        0.11698946764289378
      ],
      "translation": [
        0,
        -172.8743438720703,
        -69.61038970947266
      ],
      "scale": [
        1.0000001798468683,
        1.0000001798468683,
        1
      ],
      "name": "Bone_1",
      "children": [
        21,
        25,
        29
      ]
    },
    {
      "mesh": 0,
      "children": [
        17,
        30
      ],
      "skin": 0
    },
    {
      "extras": {
        "silentHillModel": {
          "name": "inu.mdl",
          "characterId": 269
        }
      },
      "children": [
        31
      ]
    }
  ],
  "bufferViews": [
    {
      "buffer": 0,
      "byteOffset": 0,
      "byteLength": 39192,
      "target": 34962,
      "byteStride": 12
    },
    {
      "buffer": 0,
      "byteOffset": 39192,
      "byteLength": 39192,
      "target": 34962,
      "byteStride": 12
    },
    {
      "buffer": 0,
      "byteOffset": 78384,
      "byteLength": 26128,
      "target": 34962,
      "byteStride": 8
    },
    {
      "buffer": 0,
      "byteOffset": 104512,
      "byteLength": 26128,
      "target": 34962,
      "byteStride": 8
    },
    {
      "buffer": 0,
      "byteOffset": 130640,
      "byteLength": 52256,
      "target": 34962,
      "byteStride": 16
    },
    {
      "buffer": 0,
      "byteOffset": 182896,
      "byteLength": 13884,
      "target": 34963
    },
    {
      "buffer": 0,
      "byteOffset": 196780,
      "byteLength": 7712,
      "target": 34963
    },
    {
      "buffer": 0,
      "byteOffset": 204492,
      "byteLength": 7952,
      "target": 34963
    },
    {
      "buffer": 0,
      "byteOffset": 212444,
      "byteLength": 1984
    }
  ],
  "buffers": [
    {
      "byteLength": 214428,
      "uri": "data:application/octet-stream;base64,"
    }
  ],
  "accessors": [
    {
      "bufferView": 0,
      "componentType": 5126,
      "count": 3266,
      "max": [
        55.4375,
        0.08954543620347977,
        210.20184326171875
      ],
      "min": [
        -55.4375,
        -302.6911315917969,
        -161.271484375
      ],
      "type": "VEC3"
    },
    {
      "bufferView": 1,
      "componentType": 5126,
      "count": 3266,
      "max": [
        0.999267578125,
        0.9997844099998474,
        0.9998376369476318
      ],
      "min": [
        -0.9991921782493591,
        -0.9998869895935059,
        -0.9991987943649292
      ],
      "type": "VEC3"
    },
    {
      "bufferView": 2,
      "componentType": 5126,
      "count": 3266,
      "max": [
        1.089111328125,
        1.448486328125
      ],
      "min": [
        0,
        0.003662109375
      ],
      "type": "VEC2"
    },
    {
      "bufferView": 3,
      "componentType": 5123,
      "count": 3266,
      "max": [
        30,
        30,
        29,
        0
      ],
      "min": [
        0,
        0,
        0,
        0
      ],
      "type": "VEC4"
    },
    {
      "bufferView": 4,
      "componentType": 5126,
      "count": 3266,
      "max": [
        1,
        0.9941391944885254,
        0.7001221179962158,
        0
      ],
      "min": [
        0.0009768010349944234,
        0,
        0,
        0
      ],
      "type": "VEC4"
    },
    {
      "bufferView": 5,
      "componentType": 5123,
      "count": 6942,
      "max": [
        1511
      ],
      "min": [
        0
      ],
      "type": "SCALAR"
    },
    {
      "bufferView": 6,
      "componentType": 5123,
      "count": 3855,
      "max": [
        2363
      ],
      "min": [
        1512
      ],
      "type": "SCALAR"
    },
    {
      "bufferView": 7,
      "componentType": 5123,
      "count": 3975,
      "max": [
        3265
      ],
      "min": [
        2364
      ],
      "type": "SCALAR"
    },
    {
      "bufferView": 8,
      "componentType": 5126,
      "count": 31,
      "max": [
        0.47279980778694153,
        0.8811696171760559,
        5.179543904887396e-7,
        0,
        0.9781966805458069,
        0.9981975555419922,
        0.2821171283721924,
        0,
        0.9981975555419922,
        0.7630994319915771,
        0.9593799710273743,
        0,
        189.53347778320312,
        283.2929992675781,
        80.15062713623047,
        1
      ],
      "min": [
        -0.6832547783851624,
        -0.7726262211799622,
        -1,
        0,
        -0.9729695916175842,
        -0.9452536702156067,
        -0.20298975706100464,
        0,
        -0.9452536702156067,
        -0.9759072065353394,
        -0.7751155495643616,
        0,
        -279.5799255371094,
        -186.12648010253906,
        -144.31138610839844,
        1
      ],
      "type": "MAT4"
    }
  ],
  "materials": [
    {
      "pbrMetallicRoughness": {
        "metallicFactor": 0,
        "roughnessFactor": 1,
        "baseColorTexture": {
          "index": 0,
          "texCoord": 0
        }
      },
      "alphaMode": "MASK",
      "alphaCutoff": 0.01,
      "doubleSided": true
    },
    {
      "pbrMetallicRoughness": {
        "metallicFactor": 0,
        "roughnessFactor": 1,
        "baseColorTexture": {
          "index": 1,
          "texCoord": 0
        }
      },
      "alphaMode": "MASK",
      "alphaCutoff": 0.01,
      "doubleSided": true
    }
  ],
  "textures": [
    {
      "sampler": 0,
      "source": 0
    },
    {
      "sampler": 1,
      "source": 1
    }
  ],
  "samplers": [
    {
      "magFilter": 9729,
      "minFilter": 9729,
      "wrapS": 33071,
      "wrapT": 33071
    },
    {
      "magFilter": 9729,
      "minFilter": 9729,
      "wrapS": 33071,
      "wrapT": 33071
    }
  ],
  "images": [
    {
      "mimeType": "image/png",
      "uri": "data:image/png;base64,"
    },
    {
      "mimeType": "image/png",
      "uri": "data:image/png;base64,"
    }
  ],
  "meshes": [
    {
      "primitives": [
        {
          "mode": 4,
          "attributes": {
            "POSITION": 0,
            "NORMAL": 1,
            "TEXCOORD_0": 2,
            "JOINTS_0": 3,
            "WEIGHTS_0": 4
          },
          "indices": 5,
          "material": 0
        },
        {
          "mode": 4,
          "attributes": {
            "POSITION": 0,
            "NORMAL": 1,
            "TEXCOORD_0": 2,
            "JOINTS_0": 3,
            "WEIGHTS_0": 4
          },
          "indices": 6,
          "material": 1
        },
        {
          "mode": 4,
          "attributes": {
            "POSITION": 0,
            "NORMAL": 1,
            "TEXCOORD_0": 2,
            "JOINTS_0": 3,
            "WEIGHTS_0": 4
          },
          "indices": 7,
          "material": 1
        }
      ]
    }
  ],
  "skins": [
    {
      "inverseBindMatrices": 8,
      "joints": [
        17,
        30,
        16,
        21,
        15,
        25,
        29,
        20,
        24,
        28,
        4,
        9,
        14,
        27,
        3,
        19,
        23,
        26,
        18,
        8,
        22,
        13,
        0,
        1,
        7,
        2,
        12,
        6,
        11,
        5,
        10
      ],
      "skeleton": 17
    }
  ]
}